<svg width="64" height="64" viewBox="0 0 64 64" fill="none" xmlns="http://www.w3.org/2000/svg">
<circle opacity="0.15" cx="32" cy="32" r="32" fill="#F21E84"/>
<path d="M44 29.25H42.7213C42.5228 26.5422 41.3071 24.0098 39.3183 22.1614C37.3296 20.313 34.7151 19.2857 32 19.2857C29.2849 19.2857 26.6704 20.313 24.6817 22.1614C22.6929 24.0098 21.4772 26.5422 21.2787 29.25H20C19.8011 29.25 19.6103 29.329 19.4697 29.4697C19.329 29.6103 19.25 29.8011 19.25 30C19.2545 32.3581 19.9106 34.6691 21.1459 36.6778C22.3811 38.6864 24.1475 40.3146 26.25 41.3825V42C26.25 42.4641 26.4344 42.9092 26.7626 43.2374C27.0908 43.5656 27.5359 43.75 28 43.75H36C36.4641 43.75 36.9092 43.5656 37.2374 43.2374C37.5656 42.9092 37.75 42.4641 37.75 42V41.3825C39.8525 40.3146 41.6189 38.6864 42.8541 36.6778C44.0894 34.6691 44.7455 32.3581 44.75 30C44.75 29.8011 44.671 29.6103 44.5303 29.4697C44.3897 29.329 44.1989 29.25 44 29.25ZM37.78 22.7862C38.1429 23.0769 38.4835 23.3945 38.7987 23.7362C37.4066 24.1696 36.1172 24.8819 35.0094 25.8299C33.9015 26.7779 32.9984 27.9416 32.355 29.25H28.1675C28.7582 27.3687 29.9328 25.7245 31.5209 24.5558C33.109 23.387 35.0282 22.7545 37 22.75C37.26 22.75 37.5212 22.7637 37.78 22.7862ZM39.7875 25.0175C40.6052 26.2892 41.0964 27.743 41.2175 29.25H34.06C34.6871 28.2006 35.5162 27.2861 36.4994 26.5595C37.4826 25.833 38.6002 25.3088 39.7875 25.0175ZM32 20.75C33.1458 20.7481 34.2819 20.9601 35.35 21.375C33.2869 21.7007 31.3627 22.6181 29.8109 24.016C28.259 25.4138 27.1462 27.2321 26.6075 29.25H22.7825C22.9734 26.9355 24.0268 24.7773 25.7341 23.2029C27.4413 21.6286 29.6777 20.7531 32 20.75ZM36.6875 40.23C36.5568 40.2899 36.4462 40.386 36.3686 40.507C36.291 40.628 36.2499 40.7688 36.25 40.9125V42C36.25 42.0663 36.2237 42.1299 36.1768 42.1768C36.1299 42.2237 36.0663 42.25 36 42.25H28C27.9337 42.25 27.8701 42.2237 27.8232 42.1768C27.7763 42.1299 27.75 42.0663 27.75 42V40.9125C27.7501 40.7688 27.709 40.628 27.6314 40.507C27.5538 40.386 27.4432 40.2899 27.3125 40.23C25.4727 39.3815 23.8949 38.0537 22.7447 36.3858C21.5945 34.7179 20.9142 32.7713 20.775 30.75H43.225C43.0858 32.7713 42.4055 34.7179 41.2553 36.3858C40.1051 38.0537 38.5273 39.3815 36.6875 40.23Z" fill="#F21E84"/>
</svg>
