<svg width="64" height="64" viewBox="0 0 64 64" fill="none" xmlns="http://www.w3.org/2000/svg">
<circle opacity="0.15" cx="32" cy="32" r="32" fill="#F69134"/>
<path d="M47 31.25H45.75V27C45.75 26.5359 45.5656 26.0908 45.2374 25.7626C44.9092 25.4344 44.4641 25.25 44 25.25H41.75V24C41.75 23.5359 41.5656 23.0908 41.2374 22.7626C40.9092 22.4344 40.4641 22.25 40 22.25H37C36.5359 22.25 36.0908 22.4344 35.7626 22.7626C35.4344 23.0908 35.25 23.5359 35.25 24V31.25H28.75V24C28.75 23.5359 28.5656 23.0908 28.2374 22.7626C27.9092 22.4344 27.4641 22.25 27 22.25H24C23.5359 22.25 23.0908 22.4344 22.7626 22.7626C22.4344 23.0908 22.25 23.5359 22.25 24V25.25H20C19.5359 25.25 19.0908 25.4344 18.7626 25.7626C18.4344 26.0908 18.25 26.5359 18.25 27V31.25H17C16.8011 31.25 16.6103 31.329 16.4697 31.4697C16.329 31.6103 16.25 31.8011 16.25 32C16.25 32.1989 16.329 32.3897 16.4697 32.5303C16.6103 32.671 16.8011 32.75 17 32.75H18.25V37C18.25 37.4641 18.4344 37.9092 18.7626 38.2374C19.0908 38.5656 19.5359 38.75 20 38.75H22.25V40C22.25 40.4641 22.4344 40.9092 22.7626 41.2374C23.0908 41.5656 23.5359 41.75 24 41.75H27C27.4641 41.75 27.9092 41.5656 28.2374 41.2374C28.5656 40.9092 28.75 40.4641 28.75 40V32.75H35.25V40C35.25 40.4641 35.4344 40.9092 35.7626 41.2374C36.0908 41.5656 36.5359 41.75 37 41.75H40C40.4641 41.75 40.9092 41.5656 41.2374 41.2374C41.5656 40.9092 41.75 40.4641 41.75 40V38.75H44C44.4641 38.75 44.9092 38.5656 45.2374 38.2374C45.5656 37.9092 45.75 37.4641 45.75 37V32.75H47C47.1989 32.75 47.3897 32.671 47.5303 32.5303C47.671 32.3897 47.75 32.1989 47.75 32C47.75 31.8011 47.671 31.6103 47.5303 31.4697C47.3897 31.329 47.1989 31.25 47 31.25ZM20 37.25C19.9337 37.25 19.8701 37.2237 19.8232 37.1768C19.7763 37.1299 19.75 37.0663 19.75 37V27C19.75 26.9337 19.7763 26.8701 19.8232 26.8232C19.8701 26.7763 19.9337 26.75 20 26.75H22.25V37.25H20ZM27.25 40C27.25 40.0663 27.2237 40.1299 27.1768 40.1768C27.1299 40.2237 27.0663 40.25 27 40.25H24C23.9337 40.25 23.8701 40.2237 23.8232 40.1768C23.7763 40.1299 23.75 40.0663 23.75 40V24C23.75 23.9337 23.7763 23.8701 23.8232 23.8232C23.8701 23.7763 23.9337 23.75 24 23.75H27C27.0663 23.75 27.1299 23.7763 27.1768 23.8232C27.2237 23.8701 27.25 23.9337 27.25 24V40ZM40.25 40C40.25 40.0663 40.2237 40.1299 40.1768 40.1768C40.1299 40.2237 40.0663 40.25 40 40.25H37C36.9337 40.25 36.8701 40.2237 36.8232 40.1768C36.7763 40.1299 36.75 40.0663 36.75 40V24C36.75 23.9337 36.7763 23.8701 36.8232 23.8232C36.8701 23.7763 36.9337 23.75 37 23.75H40C40.0663 23.75 40.1299 23.7763 40.1768 23.8232C40.2237 23.8701 40.25 23.9337 40.25 24V40ZM44.25 37C44.25 37.0663 44.2237 37.1299 44.1768 37.1768C44.1299 37.2237 44.0663 37.25 44 37.25H41.75V26.75H44C44.0663 26.75 44.1299 26.7763 44.1768 26.8232C44.2237 26.8701 44.25 26.9337 44.25 27V37Z" fill="#F69134"/>
</svg>
