<svg width="32" height="32" viewBox="0 0 32 32" fill="none" xmlns="http://www.w3.org/2000/svg">
<path d="M26 3.25H21C20.8011 3.25 20.6103 3.32902 20.4697 3.46967C20.329 3.61032 20.25 3.80109 20.25 4C20.25 4.19891 20.329 4.38968 20.4697 4.53033C20.6103 4.67098 20.8011 4.75 21 4.75H24.19L20.44 8.4925C19.5579 7.61835 18.4786 6.969 17.2931 6.59913C16.1075 6.22925 14.8505 6.1497 13.6278 6.36716C12.4051 6.58463 11.2525 7.09274 10.2673 7.84871C9.28196 8.60467 8.49277 9.58635 7.96615 10.7111C7.43954 11.8358 7.19091 13.0705 7.24123 14.3114C7.29154 15.5523 7.63932 16.7629 8.25527 17.8412C8.87121 18.9196 9.73729 19.8342 10.7805 20.5079C11.8238 21.1816 13.0137 21.5947 14.25 21.7125V24.25H11C10.8011 24.25 10.6103 24.329 10.4697 24.4697C10.329 24.6103 10.25 24.8011 10.25 25C10.25 25.1989 10.329 25.3897 10.4697 25.5303C10.6103 25.671 10.8011 25.75 11 25.75H14.25V29C14.25 29.1989 14.329 29.3897 14.4697 29.5303C14.6103 29.671 14.8011 29.75 15 29.75C15.1989 29.75 15.3897 29.671 15.5303 29.5303C15.671 29.3897 15.75 29.1989 15.75 29V25.75H19C19.1989 25.75 19.3897 25.671 19.5303 25.5303C19.671 25.3897 19.75 25.1989 19.75 25C19.75 24.8011 19.671 24.6103 19.5303 24.4697C19.3897 24.329 19.1989 24.25 19 24.25H15.75V21.7125C17.0874 21.5817 18.3678 21.1053 19.4656 20.3302C20.5633 19.5551 21.4407 18.5079 22.0115 17.2914C22.5823 16.0749 22.827 14.7308 22.7216 13.3911C22.6161 12.0515 22.1641 10.7622 21.41 9.65L25.25 5.81V9C25.25 9.19891 25.329 9.38968 25.4697 9.53033C25.6103 9.67098 25.8011 9.75 26 9.75C26.1989 9.75 26.3897 9.67098 26.5303 9.53033C26.671 9.38968 26.75 9.19891 26.75 9V4C26.75 3.80109 26.671 3.61032 26.5303 3.46967C26.3897 3.32902 26.1989 3.25 26 3.25ZM15 20.25C13.7639 20.25 12.5555 19.8834 11.5277 19.1967C10.4999 18.5099 9.69879 17.5338 9.22574 16.3918C8.75269 15.2497 8.62892 13.9931 8.87008 12.7807C9.11124 11.5683 9.70649 10.4547 10.5806 9.58058C11.4546 8.7065 12.5683 8.11125 13.7807 7.87009C14.9931 7.62893 16.2497 7.75271 17.3918 8.22575C18.5338 8.6988 19.5099 9.49988 20.1967 10.5277C20.8834 11.5555 21.25 12.7639 21.25 14C21.248 15.657 20.5889 17.2456 19.4172 18.4172C18.2455 19.5889 16.657 20.248 15 20.25Z" fill="#F24E1E"/>
</svg>
