<svg width="32" height="32" viewBox="0 0 32 32" fill="none" xmlns="http://www.w3.org/2000/svg">
<path d="M16 8.75C16.7417 8.75 17.4667 8.53007 18.0834 8.11801C18.7001 7.70596 19.1808 7.12029 19.4646 6.43506C19.7484 5.74984 19.8227 4.99584 19.678 4.26841C19.5333 3.54098 19.1761 2.8728 18.6517 2.34835C18.1272 1.8239 17.459 1.46675 16.7316 1.32206C16.0042 1.17736 15.2502 1.25162 14.565 1.53545C13.8797 1.81928 13.2941 2.29993 12.882 2.91661C12.47 3.5333 12.25 4.25832 12.25 5C12.25 5.99456 12.6451 6.94839 13.3484 7.65165C14.0516 8.35491 15.0055 8.75 16 8.75ZM16 2.75C16.445 2.75 16.8801 2.88196 17.2501 3.12919C17.6201 3.37643 17.9085 3.72783 18.0788 4.13896C18.2491 4.5501 18.2936 5.0025 18.2068 5.43895C18.12 5.87541 17.9057 6.27632 17.591 6.59099C17.2764 6.90566 16.8754 7.11995 16.439 7.20677C16.0025 7.29359 15.5501 7.24903 15.139 7.07873C14.7279 6.90843 14.3765 6.62004 14.1292 6.25003C13.882 5.88002 13.75 5.44501 13.75 5C13.75 4.40326 13.9871 3.83097 14.409 3.40901C14.831 2.98705 15.4033 2.75 16 2.75ZM27.11 16.9275L21.4588 10.52C21.1069 10.1209 20.6741 9.80126 20.1892 9.58229C19.7043 9.36332 19.1783 9.25005 18.6463 9.25H13.3538C12.8218 9.24989 12.2959 9.36297 11.811 9.58172C11.3261 9.80047 10.8933 10.1199 10.5413 10.5188L4.89003 16.9275C4.68008 17.1355 4.51315 17.3828 4.39877 17.6553C4.28439 17.9278 4.22481 18.2201 4.22341 18.5156C4.2206 19.1125 4.45499 19.686 4.87503 20.11C5.29507 20.534 5.86634 20.7738 6.46317 20.7766C7.06001 20.7794 7.63352 20.545 8.05753 20.125L10.6963 18.0088L8.43003 26.615C8.19179 27.1564 8.17632 27.7698 8.38698 28.3226C8.59763 28.8753 9.01747 29.3228 9.55562 29.5683C10.0938 29.8138 10.7069 29.8375 11.2624 29.6343C11.8179 29.4311 12.2711 29.0173 12.5238 28.4825L16 22.5L19.4763 28.4888C19.729 29.0236 20.1821 29.4373 20.7376 29.6406C21.2931 29.8438 21.9063 29.8201 22.4444 29.5746C22.9826 29.3291 23.4024 28.8815 23.6131 28.3288C23.8237 27.7761 23.8083 27.1627 23.57 26.6213L21.3038 18.0125L23.9425 20.125C24.3691 20.5305 24.9376 20.7527 25.5261 20.744C26.1146 20.7353 26.6762 20.4963 27.0906 20.0784C27.505 19.6604 27.7391 19.0967 27.7427 18.5081C27.7463 17.9196 27.5192 17.3531 27.11 16.93V16.9275ZM26.0313 19.03C25.9616 19.0997 25.8789 19.1551 25.7879 19.1928C25.6968 19.2305 25.5992 19.25 25.5007 19.25C25.4021 19.25 25.3045 19.2305 25.2134 19.1928C25.1224 19.1551 25.0397 19.0997 24.97 19.03C24.9511 19.0101 24.9306 18.9917 24.9088 18.975L20.47 15.415C20.347 15.3162 20.196 15.2588 20.0384 15.2508C19.8809 15.2429 19.7248 15.2848 19.5924 15.3706C19.4601 15.4565 19.3582 15.5818 19.3012 15.729C19.2442 15.8761 19.235 16.0374 19.275 16.19L22.1338 27.0563C22.1463 27.0989 22.1617 27.1407 22.18 27.1813C22.2641 27.3616 22.273 27.5679 22.2049 27.7549C22.1368 27.9418 21.9973 28.0941 21.8169 28.1781C21.6366 28.2622 21.4302 28.2711 21.2433 28.203C21.0563 28.1349 20.9041 27.9953 20.82 27.815C20.8109 27.7944 20.8004 27.7743 20.7888 27.755L16.6488 20.625C16.5829 20.5113 16.4882 20.417 16.3744 20.3514C16.2605 20.2858 16.1314 20.2513 16 20.2513C15.8686 20.2513 15.7396 20.2858 15.6257 20.3514C15.5118 20.417 15.4172 20.5113 15.3513 20.625L11.2113 27.7563C11.1996 27.7756 11.1892 27.7956 11.18 27.8163C11.096 27.9966 10.9437 28.1362 10.7568 28.2043C10.5698 28.2724 10.3635 28.2634 10.1832 28.1794C10.0028 28.0953 9.86323 27.9431 9.79513 27.7561C9.72704 27.5692 9.73599 27.3629 9.82003 27.1825C9.83833 27.142 9.85379 27.1002 9.86628 27.0575L12.725 16.1913C12.7644 16.0392 12.7551 15.8786 12.6983 15.7322C12.6416 15.5858 12.5403 15.4608 12.4088 15.375C12.2873 15.295 12.1454 15.2516 12 15.25C11.8291 15.2499 11.6633 15.3081 11.53 15.415L7.09128 18.975C7.06944 18.9917 7.04896 19.0101 7.03003 19.03C6.8893 19.1707 6.69843 19.2498 6.49941 19.2498C6.30038 19.2498 6.10951 19.1707 5.96878 19.03C5.82805 18.8893 5.74899 18.6984 5.74899 18.4994C5.74899 18.3004 5.82805 18.1095 5.96878 17.9688L6.00128 17.935L11.6663 11.5113C11.8775 11.2719 12.1372 11.0803 12.4281 10.949C12.7191 10.8178 13.0346 10.7499 13.3538 10.75H18.6463C18.9655 10.7499 19.281 10.8178 19.5719 10.949C19.8629 11.0803 20.1226 11.2719 20.3338 11.5113L26 17.935L26.0325 17.9688C26.1022 18.0385 26.1574 18.1213 26.195 18.2124C26.2327 18.3035 26.252 18.4011 26.2519 18.4996C26.2518 18.5982 26.2322 18.6958 26.1944 18.7868C26.1565 18.8778 26.1011 18.9604 26.0313 19.03Z" fill="#F21E84"/>
</svg>
