<svg width="64" height="64" viewBox="0 0 64 64" fill="none" xmlns="http://www.w3.org/2000/svg">
<circle opacity="0.15" cx="32" cy="32" r="32" fill="#22C1C1"/>
<path d="M45.75 28C45.75 28.1989 45.6709 28.3897 45.5303 28.5303C45.3896 28.671 45.1989 28.75 45 28.75H42.75V31C42.75 31.1989 42.6709 31.3897 42.5303 31.5303C42.3896 31.671 42.1989 31.75 42 31.75C41.801 31.75 41.6103 31.671 41.4696 31.5303C41.329 31.3897 41.25 31.1989 41.25 31V28.75H39C38.801 28.75 38.6103 28.671 38.4696 28.5303C38.329 28.3897 38.25 28.1989 38.25 28C38.25 27.8011 38.329 27.6103 38.4696 27.4697C38.6103 27.329 38.801 27.25 39 27.25H41.25V25C41.25 24.8011 41.329 24.6103 41.4696 24.4697C41.6103 24.329 41.801 24.25 42 24.25C42.1989 24.25 42.3896 24.329 42.5303 24.4697C42.6709 24.6103 42.75 24.8011 42.75 25V27.25H45C45.1989 27.25 45.3896 27.329 45.5303 27.4697C45.6709 27.6103 45.75 27.8011 45.75 28ZM34 22.75H35.25V24C35.25 24.1989 35.329 24.3897 35.4696 24.5303C35.6103 24.671 35.801 24.75 36 24.75C36.1989 24.75 36.3896 24.671 36.5303 24.5303C36.6709 24.3897 36.75 24.1989 36.75 24V22.75H38C38.1989 22.75 38.3896 22.671 38.5303 22.5303C38.6709 22.3897 38.75 22.1989 38.75 22C38.75 21.8011 38.6709 21.6103 38.5303 21.4697C38.3896 21.329 38.1989 21.25 38 21.25H36.75V20C36.75 19.8011 36.6709 19.6103 36.5303 19.4697C36.3896 19.329 36.1989 19.25 36 19.25C35.801 19.25 35.6103 19.329 35.4696 19.4697C35.329 19.6103 35.25 19.8011 35.25 20V21.25H34C33.801 21.25 33.6103 21.329 33.4696 21.4697C33.329 21.6103 33.25 21.8011 33.25 22C33.25 22.1989 33.329 22.3897 33.4696 22.5303C33.6103 22.671 33.801 22.75 34 22.75ZM42.9062 35.285C42.9935 35.3867 43.0519 35.5099 43.0754 35.6418C43.0989 35.7736 43.0867 35.9094 43.04 36.035C42.3612 37.8886 41.2265 39.5413 39.7405 40.8406C38.2545 42.1399 36.4651 43.0439 34.5375 43.4691C32.6099 43.8943 30.6062 43.827 28.7115 43.2735C26.8168 42.72 25.092 41.6981 23.6965 40.3021C22.3009 38.9061 21.2796 37.181 20.7267 35.286C20.1738 33.3911 20.1072 31.3875 20.533 29.46C20.9589 27.5326 21.8635 25.7435 23.1633 24.2579C24.463 22.7723 26.1161 21.6381 27.97 20.96C28.0948 20.9146 28.2294 20.9031 28.3601 20.9268C28.4908 20.9505 28.6129 21.0085 28.7138 21.0948C28.8148 21.1811 28.891 21.2927 28.9347 21.4182C28.9784 21.5436 28.9879 21.6784 28.9625 21.8088C28.641 23.44 28.6847 25.1222 29.0904 26.7346C29.4961 28.3469 30.2537 29.8495 31.3088 31.1344C32.3639 32.4194 33.6904 33.4548 35.1931 34.1663C36.6958 34.8779 38.3373 35.248 40 35.25C40.7355 35.2503 41.4694 35.1791 42.1912 35.0375C42.3216 35.0117 42.4566 35.021 42.5822 35.0645C42.7078 35.108 42.8197 35.1841 42.9062 35.285ZM41.11 36.7025C40.7416 36.7342 40.3716 36.75 40 36.75C36.6197 36.746 33.379 35.4015 30.9887 33.0112C28.5985 30.621 27.2539 27.3803 27.25 24C27.25 23.6292 27.2658 23.2592 27.2975 22.89C25.8651 23.6305 24.6277 24.6985 23.6858 26.0072C22.7438 27.3159 22.1239 28.8283 21.8763 30.4216C21.6288 32.0149 21.7607 33.6442 22.2612 35.177C22.7618 36.7097 23.6168 38.1028 24.757 39.2429C25.8972 40.3831 27.2902 41.2382 28.823 41.7387C30.3558 42.2393 31.985 42.3711 33.5783 42.1236C35.1716 41.8761 36.6841 41.2562 37.9928 40.3142C39.3014 39.3722 40.3694 38.1348 41.11 36.7025Z" fill="#22C1C1"/>
</svg>
